<mxfile host="app.diagrams.net" modified="2020-11-16T10:04:02.172Z" agent="5.0 (Windows NT 10.0; WOW64) AppleWebKit/537.36 (KHTML, like Gecko) Chrome/86.0.4240.77 YaBrowser/20.11.0.821 Yowser/2.5 Safari/537.36" etag="c129gtsxNl6KtPQP-EkR" version="13.9.9" type="github">
  <diagram id="4grpE7qk7KgjLC-4zbe9" name="Страница 1">
    <mxGraphModel dx="1038" dy="576" grid="1" gridSize="10" guides="1" tooltips="1" connect="1" arrows="1" fold="1" page="1" pageScale="1" pageWidth="827" pageHeight="1169" math="0" shadow="0">
      <root>
        <mxCell id="0" />
        <mxCell id="1" parent="0" />
        <mxCell id="YwVRpdJXpS6gCIjoCCGZ-3" value="" style="edgeStyle=orthogonalEdgeStyle;rounded=0;orthogonalLoop=1;jettySize=auto;html=1;" edge="1" parent="1" source="YwVRpdJXpS6gCIjoCCGZ-1" target="YwVRpdJXpS6gCIjoCCGZ-2">
          <mxGeometry relative="1" as="geometry" />
        </mxCell>
        <mxCell id="YwVRpdJXpS6gCIjoCCGZ-1" value="&lt;font style=&quot;font-size: 19px&quot;&gt;Приветствие&lt;/font&gt;" style="rounded=0;whiteSpace=wrap;html=1;" vertex="1" parent="1">
          <mxGeometry x="354" y="40" width="120" height="60" as="geometry" />
        </mxCell>
        <mxCell id="YwVRpdJXpS6gCIjoCCGZ-5" value="" style="edgeStyle=orthogonalEdgeStyle;rounded=0;orthogonalLoop=1;jettySize=auto;html=1;" edge="1" parent="1" source="YwVRpdJXpS6gCIjoCCGZ-2" target="YwVRpdJXpS6gCIjoCCGZ-4">
          <mxGeometry relative="1" as="geometry" />
        </mxCell>
        <mxCell id="YwVRpdJXpS6gCIjoCCGZ-8" value="" style="edgeStyle=orthogonalEdgeStyle;rounded=0;orthogonalLoop=1;jettySize=auto;html=1;" edge="1" parent="1" source="YwVRpdJXpS6gCIjoCCGZ-2" target="YwVRpdJXpS6gCIjoCCGZ-7">
          <mxGeometry relative="1" as="geometry" />
        </mxCell>
        <mxCell id="YwVRpdJXpS6gCIjoCCGZ-2" value="&lt;span style=&quot;color: rgba(0 , 0 , 0 , 0.86) ; font-family: &amp;#34;pt serif&amp;#34; , &amp;#34;noto sans armenian&amp;#34; , &amp;#34;noto sans bengali&amp;#34; , &amp;#34;noto sans cherokee&amp;#34; , &amp;#34;noto sans devanagari&amp;#34; , &amp;#34;noto sans ethiopic&amp;#34; , &amp;#34;noto sans georgian&amp;#34; , &amp;#34;noto sans hebrew&amp;#34; , &amp;#34;noto sans kannada&amp;#34; , &amp;#34;noto sans khmer&amp;#34; , &amp;#34;noto sans lao&amp;#34; , &amp;#34;noto sans osmanya&amp;#34; , &amp;#34;noto sans tamil&amp;#34; , &amp;#34;noto sans telugu&amp;#34; , &amp;#34;noto sans thai&amp;#34; , serif ; font-size: 19px ; text-align: left ; background-color: rgb(255 , 255 , 255)&quot;&gt;Когда необходимо доставить документы?&lt;/span&gt;" style="rounded=0;whiteSpace=wrap;html=1;" vertex="1" parent="1">
          <mxGeometry x="309" y="180" width="210" height="100" as="geometry" />
        </mxCell>
        <mxCell id="YwVRpdJXpS6gCIjoCCGZ-10" value="" style="edgeStyle=orthogonalEdgeStyle;rounded=0;orthogonalLoop=1;jettySize=auto;html=1;" edge="1" parent="1" source="YwVRpdJXpS6gCIjoCCGZ-4" target="YwVRpdJXpS6gCIjoCCGZ-9">
          <mxGeometry relative="1" as="geometry" />
        </mxCell>
        <mxCell id="YwVRpdJXpS6gCIjoCCGZ-4" value="&lt;div style=&quot;text-align: left&quot;&gt;&lt;font face=&quot;pt serif, noto sans armenian, noto sans bengali, noto sans cherokee, noto sans devanagari, noto sans ethiopic, noto sans georgian, noto sans hebrew, noto sans kannada, noto sans khmer, noto sans lao, noto sans osmanya, noto sans tamil, noto sans telugu, noto sans thai, serif&quot;&gt;&lt;span style=&quot;font-size: 19px ; background-color: rgb(255 , 255 , 255)&quot;&gt;В определенное время.&lt;/span&gt;&lt;/font&gt;&lt;/div&gt;" style="rounded=0;whiteSpace=wrap;html=1;" vertex="1" parent="1">
          <mxGeometry x="599" y="180" width="210" height="100" as="geometry" />
        </mxCell>
        <mxCell id="YwVRpdJXpS6gCIjoCCGZ-13" style="edgeStyle=orthogonalEdgeStyle;rounded=0;orthogonalLoop=1;jettySize=auto;html=1;entryX=0;entryY=0.5;entryDx=0;entryDy=0;" edge="1" parent="1" source="YwVRpdJXpS6gCIjoCCGZ-7" target="YwVRpdJXpS6gCIjoCCGZ-11">
          <mxGeometry relative="1" as="geometry">
            <mxPoint x="124" y="390" as="targetPoint" />
            <Array as="points">
              <mxPoint x="124" y="380" />
            </Array>
          </mxGeometry>
        </mxCell>
        <mxCell id="YwVRpdJXpS6gCIjoCCGZ-7" value="&lt;div style=&quot;text-align: left&quot;&gt;&lt;font face=&quot;pt serif, noto sans armenian, noto sans bengali, noto sans cherokee, noto sans devanagari, noto sans ethiopic, noto sans georgian, noto sans hebrew, noto sans kannada, noto sans khmer, noto sans lao, noto sans osmanya, noto sans tamil, noto sans telugu, noto sans thai, serif&quot;&gt;&lt;span style=&quot;font-size: 19px ; background-color: rgb(255 , 255 , 255)&quot;&gt;В ближайшее время&lt;/span&gt;&lt;/font&gt;&lt;/div&gt;" style="rounded=0;whiteSpace=wrap;html=1;" vertex="1" parent="1">
          <mxGeometry x="19" y="180" width="210" height="100" as="geometry" />
        </mxCell>
        <mxCell id="YwVRpdJXpS6gCIjoCCGZ-12" value="" style="edgeStyle=orthogonalEdgeStyle;rounded=0;orthogonalLoop=1;jettySize=auto;html=1;" edge="1" parent="1" source="YwVRpdJXpS6gCIjoCCGZ-9" target="YwVRpdJXpS6gCIjoCCGZ-11">
          <mxGeometry relative="1" as="geometry" />
        </mxCell>
        <mxCell id="YwVRpdJXpS6gCIjoCCGZ-9" value="&lt;div style=&quot;text-align: left&quot;&gt;&lt;font face=&quot;pt serif, noto sans armenian, noto sans bengali, noto sans cherokee, noto sans devanagari, noto sans ethiopic, noto sans georgian, noto sans hebrew, noto sans kannada, noto sans khmer, noto sans lao, noto sans osmanya, noto sans tamil, noto sans telugu, noto sans thai, serif&quot;&gt;&lt;span style=&quot;font-size: 19px ; background-color: rgb(255 , 255 , 255)&quot;&gt;Укажите время&lt;/span&gt;&lt;/font&gt;&lt;/div&gt;" style="rounded=0;whiteSpace=wrap;html=1;" vertex="1" parent="1">
          <mxGeometry x="599" y="330" width="210" height="100" as="geometry" />
        </mxCell>
        <mxCell id="YwVRpdJXpS6gCIjoCCGZ-15" value="" style="edgeStyle=orthogonalEdgeStyle;rounded=0;orthogonalLoop=1;jettySize=auto;html=1;" edge="1" parent="1" source="YwVRpdJXpS6gCIjoCCGZ-11" target="YwVRpdJXpS6gCIjoCCGZ-14">
          <mxGeometry relative="1" as="geometry" />
        </mxCell>
        <mxCell id="YwVRpdJXpS6gCIjoCCGZ-11" value="&lt;div&gt;&lt;span style=&quot;color: rgba(0 , 0 , 0 , 0.86) ; font-family: &amp;#34;pt serif&amp;#34; , &amp;#34;noto sans armenian&amp;#34; , &amp;#34;noto sans bengali&amp;#34; , &amp;#34;noto sans cherokee&amp;#34; , &amp;#34;noto sans devanagari&amp;#34; , &amp;#34;noto sans ethiopic&amp;#34; , &amp;#34;noto sans georgian&amp;#34; , &amp;#34;noto sans hebrew&amp;#34; , &amp;#34;noto sans kannada&amp;#34; , &amp;#34;noto sans khmer&amp;#34; , &amp;#34;noto sans lao&amp;#34; , &amp;#34;noto sans osmanya&amp;#34; , &amp;#34;noto sans tamil&amp;#34; , &amp;#34;noto sans telugu&amp;#34; , &amp;#34;noto sans thai&amp;#34; , serif ; font-size: 19px ; background-color: rgb(255 , 255 , 255)&quot;&gt;Откуда нужно забрать документы?&lt;/span&gt;&lt;br&gt;&lt;/div&gt;" style="rounded=0;whiteSpace=wrap;html=1;" vertex="1" parent="1">
          <mxGeometry x="309" y="330" width="210" height="100" as="geometry" />
        </mxCell>
        <mxCell id="YwVRpdJXpS6gCIjoCCGZ-17" value="" style="edgeStyle=orthogonalEdgeStyle;rounded=0;orthogonalLoop=1;jettySize=auto;html=1;" edge="1" parent="1" source="YwVRpdJXpS6gCIjoCCGZ-14" target="YwVRpdJXpS6gCIjoCCGZ-16">
          <mxGeometry relative="1" as="geometry" />
        </mxCell>
        <mxCell id="YwVRpdJXpS6gCIjoCCGZ-14" value="&lt;div&gt;&lt;span style=&quot;color: rgba(0 , 0 , 0 , 0.86) ; font-family: &amp;#34;pt serif&amp;#34; , &amp;#34;noto sans armenian&amp;#34; , &amp;#34;noto sans bengali&amp;#34; , &amp;#34;noto sans cherokee&amp;#34; , &amp;#34;noto sans devanagari&amp;#34; , &amp;#34;noto sans ethiopic&amp;#34; , &amp;#34;noto sans georgian&amp;#34; , &amp;#34;noto sans hebrew&amp;#34; , &amp;#34;noto sans kannada&amp;#34; , &amp;#34;noto sans khmer&amp;#34; , &amp;#34;noto sans lao&amp;#34; , &amp;#34;noto sans osmanya&amp;#34; , &amp;#34;noto sans tamil&amp;#34; , &amp;#34;noto sans telugu&amp;#34; , &amp;#34;noto sans thai&amp;#34; , serif ; font-size: 19px ; text-align: left ; background-color: rgb(255 , 255 , 255)&quot;&gt;Куда необходимо доставить документы?&lt;/span&gt;&lt;br&gt;&lt;/div&gt;" style="rounded=0;whiteSpace=wrap;html=1;" vertex="1" parent="1">
          <mxGeometry x="309" y="510" width="210" height="100" as="geometry" />
        </mxCell>
        <mxCell id="YwVRpdJXpS6gCIjoCCGZ-19" value="" style="edgeStyle=orthogonalEdgeStyle;rounded=0;orthogonalLoop=1;jettySize=auto;html=1;" edge="1" parent="1" source="YwVRpdJXpS6gCIjoCCGZ-16" target="YwVRpdJXpS6gCIjoCCGZ-18">
          <mxGeometry relative="1" as="geometry" />
        </mxCell>
        <mxCell id="YwVRpdJXpS6gCIjoCCGZ-16" value="&lt;div&gt;&lt;span style=&quot;color: rgba(0 , 0 , 0 , 0.86) ; font-family: &amp;#34;pt serif&amp;#34; , &amp;#34;noto sans armenian&amp;#34; , &amp;#34;noto sans bengali&amp;#34; , &amp;#34;noto sans cherokee&amp;#34; , &amp;#34;noto sans devanagari&amp;#34; , &amp;#34;noto sans ethiopic&amp;#34; , &amp;#34;noto sans georgian&amp;#34; , &amp;#34;noto sans hebrew&amp;#34; , &amp;#34;noto sans kannada&amp;#34; , &amp;#34;noto sans khmer&amp;#34; , &amp;#34;noto sans lao&amp;#34; , &amp;#34;noto sans osmanya&amp;#34; , &amp;#34;noto sans tamil&amp;#34; , &amp;#34;noto sans telugu&amp;#34; , &amp;#34;noto sans thai&amp;#34; , serif ; font-size: 19px ; text-align: left ; background-color: rgb(255 , 255 , 255)&quot;&gt;Как я могу к Вам обращаться?&lt;/span&gt;&lt;br&gt;&lt;/div&gt;" style="rounded=0;whiteSpace=wrap;html=1;" vertex="1" parent="1">
          <mxGeometry x="309" y="690" width="210" height="100" as="geometry" />
        </mxCell>
        <mxCell id="YwVRpdJXpS6gCIjoCCGZ-21" value="" style="edgeStyle=orthogonalEdgeStyle;rounded=0;orthogonalLoop=1;jettySize=auto;html=1;" edge="1" parent="1" source="YwVRpdJXpS6gCIjoCCGZ-18" target="YwVRpdJXpS6gCIjoCCGZ-20">
          <mxGeometry relative="1" as="geometry" />
        </mxCell>
        <mxCell id="YwVRpdJXpS6gCIjoCCGZ-18" value="&lt;div&gt;&lt;span style=&quot;color: rgba(0 , 0 , 0 , 0.86) ; font-family: &amp;#34;pt serif&amp;#34; , &amp;#34;noto sans armenian&amp;#34; , &amp;#34;noto sans bengali&amp;#34; , &amp;#34;noto sans cherokee&amp;#34; , &amp;#34;noto sans devanagari&amp;#34; , &amp;#34;noto sans ethiopic&amp;#34; , &amp;#34;noto sans georgian&amp;#34; , &amp;#34;noto sans hebrew&amp;#34; , &amp;#34;noto sans kannada&amp;#34; , &amp;#34;noto sans khmer&amp;#34; , &amp;#34;noto sans lao&amp;#34; , &amp;#34;noto sans osmanya&amp;#34; , &amp;#34;noto sans tamil&amp;#34; , &amp;#34;noto sans telugu&amp;#34; , &amp;#34;noto sans thai&amp;#34; , serif ; font-size: 19px ; text-align: left ; background-color: rgb(255 , 255 , 255)&quot;&gt;По какому номеру телефона с Вами можно связаться?&lt;/span&gt;&lt;br&gt;&lt;/div&gt;" style="rounded=0;whiteSpace=wrap;html=1;" vertex="1" parent="1">
          <mxGeometry x="309" y="870" width="210" height="100" as="geometry" />
        </mxCell>
        <mxCell id="YwVRpdJXpS6gCIjoCCGZ-20" value="&lt;div&gt;&lt;span style=&quot;color: rgba(0 , 0 , 0 , 0.86) ; font-family: &amp;#34;pt serif&amp;#34; , &amp;#34;noto sans armenian&amp;#34; , &amp;#34;noto sans bengali&amp;#34; , &amp;#34;noto sans cherokee&amp;#34; , &amp;#34;noto sans devanagari&amp;#34; , &amp;#34;noto sans ethiopic&amp;#34; , &amp;#34;noto sans georgian&amp;#34; , &amp;#34;noto sans hebrew&amp;#34; , &amp;#34;noto sans kannada&amp;#34; , &amp;#34;noto sans khmer&amp;#34; , &amp;#34;noto sans lao&amp;#34; , &amp;#34;noto sans osmanya&amp;#34; , &amp;#34;noto sans tamil&amp;#34; , &amp;#34;noto sans telugu&amp;#34; , &amp;#34;noto sans thai&amp;#34; , serif ; font-size: 19px ; text-align: left ; background-color: rgb(255 , 255 , 255)&quot;&gt;Спасибо за заказ. В ближайшее время курьер с вами свяжется. Хорошего дня.&lt;/span&gt;&lt;br&gt;&lt;/div&gt;" style="rounded=0;whiteSpace=wrap;html=1;" vertex="1" parent="1">
          <mxGeometry x="309" y="1050" width="210" height="100" as="geometry" />
        </mxCell>
      </root>
    </mxGraphModel>
  </diagram>
</mxfile>
